<svg width="161" height="46" viewBox="0 0 161 46" fill="none" xmlns="http://www.w3.org/2000/svg">
<g clip-path="url(#clip0_87_170)">
<path d="M23.0012 45.5641C10.6197 45.5641 0.534729 35.4947 0.534729 23.0976C0.534729 10.7006 10.6041 0.63121 23.0012 0.63121C35.3982 0.63121 45.4676 10.7162 45.4676 23.0976C45.4676 35.4791 35.3826 45.5641 23.0012 45.5641ZM23.0012 2.77186C11.7991 2.77186 2.67538 11.8956 2.67538 23.0976C2.67538 34.2997 11.7991 43.4234 23.0012 43.4234C34.2032 43.4234 43.3269 34.2997 43.3269 23.0976C43.3269 11.8956 34.2032 2.77186 23.0012 2.77186Z" fill="url(#paint0_linear_87_170)"/>
<path d="M69.111 5.1128L68.4321 7.75094C67.3368 7.34982 65.9328 7.16469 64.1587 7.16469C61.5359 7.16469 60.5177 7.72009 60.5177 9.27829C60.5177 9.92626 60.7491 10.3891 61.212 10.6976C61.7056 11.0062 62.6467 11.2068 64.0661 11.3456C67.8767 11.7467 69.4967 13.1507 69.4967 16.1899C69.4967 19.908 67.3368 21.2657 62.5079 21.2657C60.564 21.2657 58.8824 21.0342 57.4784 20.5405L58.1573 17.9024C59.3915 18.3035 60.8263 18.4887 62.477 18.4887C65.146 18.4887 66.2105 17.9487 66.2105 16.3596C66.2105 15.6808 65.9483 15.1717 65.4392 14.8323C64.9455 14.4774 63.9735 14.2306 62.5079 14.1072C58.8207 13.7369 57.2625 12.549 57.2625 9.64856C57.2625 5.93047 59.5149 4.37227 64.1587 4.37227C65.9946 4.37227 67.6453 4.60368 69.0955 5.09737L69.111 5.1128Z" fill="white"/>
<path d="M75.6676 20.957H72.5975V4.77311H79.8177C81.9313 4.77311 83.3969 5.22051 84.2454 6.0999C85.1094 6.96385 85.526 8.36793 85.526 10.3273C85.526 11.8392 85.1248 13.0887 84.3689 14.1069C83.5975 15.1097 82.5175 15.619 81.0982 15.619H75.6676V20.957ZM75.6676 13.0578H80.1725C81.4993 13.0578 82.1627 12.1323 82.1627 10.2964C82.1627 8.3525 81.5147 7.36497 80.2342 7.36497H75.6676V13.0578Z" fill="white"/>
<path d="M99.0716 20.957C98.3928 19.2599 97.8682 17.9175 97.5134 16.9147H90.4321L89.1824 20.957H85.958C87.6705 15.5727 89.6298 10.1882 91.836 4.77311H96.634C98.6088 11.0213 100.553 16.4058 102.466 20.957H99.0716ZM93.749 7.38055C92.9776 9.35531 92.1445 11.654 91.2497 14.2922H96.634C95.8009 11.9317 95.0604 9.63301 94.3816 7.38055H93.749Z" fill="white"/>
<path d="M114.777 15.8332C115.595 16.8823 116.721 18.5948 118.14 20.9706H114.361C111.877 16.6046 110.319 14.7995 109.285 14.7995H107.125V20.9706H104.055V4.78693H112.478C115.471 4.78693 116.983 6.36056 116.983 9.49239C116.983 12.3465 115.564 13.8122 112.741 13.9202C113.296 14.1361 113.975 14.7533 114.777 15.8178V15.8332ZM107.125 7.37879V12.254H111.692C112.802 12.254 113.574 11.4826 113.574 9.87809C113.574 8.2736 112.972 7.37879 111.769 7.37879H107.125Z" fill="white"/>
<path d="M123.509 4.77311V20.957H120.439V4.77311H123.509ZM130.313 20.957C128.801 18.4731 127.428 16.4982 126.178 14.9863C124.944 13.4744 124.065 12.6104 123.54 12.4098C124.126 12.0242 124.975 11.1141 126.132 9.741C127.289 8.36793 128.523 6.70158 129.85 4.77311H133.568C132.226 6.67072 130.992 8.30606 129.881 9.61742C128.77 10.9442 127.952 11.7929 127.459 12.194C127.968 12.5488 128.832 13.4744 130.066 15.0171C131.3 16.5753 132.642 18.5501 134.077 20.9414H130.313V20.957Z" fill="white"/>
<path d="M135.805 4.77311H138.875V18.288H146.512V20.957H135.805V4.77311Z" fill="white"/>
<path d="M148.595 4.77172H160.335V7.40986H151.649V11.1434H157.851V13.7661H151.649V18.2864H160.335V20.9246H148.595V4.74086V4.77172Z" fill="white"/>
<path d="M62.3382 30.2522C63.4335 30.2522 64.4672 30.3911 65.4392 30.6842L65.0689 31.7178C64.3592 31.4247 63.449 31.2859 62.3536 31.2859C61.5976 31.2859 60.996 31.3476 60.564 31.4401C60.132 31.5327 59.7309 31.7641 59.3915 32.0881C59.0521 32.4121 58.8206 32.8903 58.6972 33.5075C58.5738 34.1246 58.5121 34.9422 58.5121 35.9605C58.5121 37.3027 58.6509 38.3209 58.9132 39.0152C59.1755 39.7094 59.5766 40.1722 60.0857 40.4191C60.6103 40.6505 61.3662 40.7739 62.3536 40.7739C63.449 40.7739 64.3438 40.6351 65.0689 40.3574L65.4392 41.3756C64.4981 41.6687 63.4644 41.823 62.3382 41.823C60.564 41.823 59.2681 41.391 58.4658 40.5425C57.6636 39.6786 57.2625 38.1666 57.2625 35.9605C57.2625 34.8342 57.355 33.9086 57.571 33.1681C57.7716 32.4275 58.0955 31.8413 58.5275 31.4093C58.9749 30.9773 59.484 30.6842 60.0857 30.5145C60.6874 30.3448 61.4279 30.2676 62.3382 30.2676V30.2522Z" fill="white"/>
<path d="M67.6857 30.4991H68.8274V40.5734H74.5511V41.5762H67.6857V30.4991Z" fill="white"/>
<path d="M78.9577 30.7459C79.6674 30.4219 80.6084 30.2522 81.8118 30.2522C83.0152 30.2522 83.9563 30.4219 84.6659 30.7459C85.3756 31.0699 85.9156 31.6561 86.2859 32.5047C86.6561 33.3532 86.8413 34.5103 86.8413 36.0068C86.8413 37.5032 86.6561 38.6912 86.2859 39.5551C85.9156 40.4191 85.3756 41.0053 84.6814 41.3293C83.9717 41.6533 83.0152 41.823 81.8118 41.823C80.6084 41.823 79.6674 41.6533 78.9577 41.3293C78.248 41.0053 77.7235 40.4037 77.3532 39.5551C76.9829 38.6912 76.7978 37.5187 76.7978 36.0068C76.7978 34.4948 76.9829 33.3532 77.3532 32.5047C77.7235 31.6561 78.2634 31.0699 78.9577 30.7459ZM83.6169 31.3939C83.1695 31.2704 82.5678 31.2242 81.8118 31.2242C81.0558 31.2242 80.4542 31.2859 80.0222 31.3939C79.5748 31.5173 79.1891 31.7487 78.8805 32.1035C78.5566 32.4584 78.3406 32.9521 78.2171 33.5692C78.0937 34.1863 78.032 35.0194 78.032 36.0376C78.032 37.3335 78.1554 38.3209 78.4023 38.9997C78.6491 39.6786 79.0348 40.1568 79.5594 40.4191C80.0839 40.6814 80.8399 40.8202 81.8118 40.8202C82.5523 40.8202 83.154 40.7585 83.6169 40.6196C84.0797 40.4808 84.4654 40.234 84.7894 39.8791C85.1133 39.5089 85.3293 39.0306 85.4528 38.4135C85.5762 37.8118 85.6379 37.0096 85.6379 36.0376C85.6379 35.004 85.5762 34.1863 85.4528 33.5692C85.3293 32.9521 85.0979 32.4584 84.7739 32.1035C84.45 31.7487 84.0643 31.5173 83.6169 31.3939Z" fill="white"/>
<path d="M89.1033 30.3833H90.2604V37.6344C90.2604 38.8532 90.5227 39.6709 91.0318 40.072C91.5409 40.4731 92.3894 40.6891 93.5774 40.6891C94.7653 40.6891 95.5984 40.4731 96.1075 40.0565C96.6166 39.64 96.8789 38.8378 96.8789 37.6344V30.3833H98.0206V37.619C98.0206 38.4521 97.928 39.1309 97.7429 39.6708C97.5577 40.2108 97.2646 40.6274 96.8635 40.9205C96.4623 41.2136 95.9995 41.4142 95.4904 41.5222C94.9813 41.6302 94.3333 41.6919 93.5619 41.6919C92.7905 41.6919 92.158 41.6302 91.6489 41.5222C91.1398 41.4142 90.6769 41.2136 90.2758 40.9205C89.8747 40.6274 89.5816 40.2108 89.381 39.6708C89.1959 39.1309 89.0879 38.4521 89.0879 37.619V30.3833H89.1033Z" fill="white"/>
<path d="M100.267 30.4991H103.677C104.571 30.4991 105.343 30.5917 105.944 30.7614C106.562 30.9311 107.086 31.2242 107.534 31.6408C107.981 32.0573 108.305 32.6281 108.505 33.3378C108.706 34.0475 108.814 34.9423 108.814 36.0068C108.814 38.0741 108.413 39.5243 107.595 40.342C106.778 41.1597 105.466 41.5762 103.677 41.5762H100.267V30.4991ZM101.409 31.4556V40.6197H103.677C105.142 40.6197 106.16 40.2957 106.731 39.6478C107.302 38.9998 107.595 37.781 107.595 36.0068C107.595 35.0503 107.534 34.2635 107.395 33.6772C107.256 33.091 107.024 32.6127 106.685 32.2887C106.346 31.9493 105.944 31.7333 105.497 31.6253C105.05 31.5173 104.433 31.4556 103.677 31.4556H101.409Z" fill="white"/>
</g>
<defs>
<linearGradient id="paint0_linear_87_170" x1="11.7679" y1="3.64474" x2="34.2292" y2="42.5505" gradientUnits="userSpaceOnUse">
<stop stop-color="#AF3F97"/>
<stop offset="0.18" stop-color="#A12890" stop-opacity="0.65"/>
<stop offset="0.39" stop-color="#8A267D" stop-opacity="0.25"/>
<stop offset="0.52" stop-color="#812674" stop-opacity="0"/>
<stop offset="0.59" stop-color="#7F287B" stop-opacity="0.14"/>
<stop offset="0.68" stop-color="#7A338D" stop-opacity="0.34"/>
<stop offset="0.8" stop-color="#6E54A3" stop-opacity="0.58"/>
<stop offset="0.92" stop-color="#617DBE" stop-opacity="0.85"/>
<stop offset="1" stop-color="#6098D1"/>
</linearGradient>
<clipPath id="clip0_87_170">
<rect width="161" height="46" fill="white"/>
</clipPath>
</defs>
</svg>
